<svg width="30" height="30" viewBox="0 0 30 30" fill="none" xmlns="http://www.w3.org/2000/svg">
<rect width="30" height="30" rx="6" fill="#EEE9DB"/>
<path d="M10.2355 21.6781C9.39285 21.6781 8.70972 20.995 8.70972 20.1523V9.75165C8.70972 8.90896 9.39285 8.22583 10.2355 8.22583C11.0782 8.22583 11.7614 8.90896 11.7614 9.75165V20.1523C11.7614 20.995 11.0782 21.6781 10.2355 21.6781ZM13.442 17.3282C12.9146 15.9024 12.8908 14.3391 13.3746 12.8979L14.6159 9.19995C14.8112 8.61797 15.3565 8.22583 15.9704 8.22583C16.9452 8.22583 17.6337 9.18046 17.3262 10.1054L16.0882 13.8285C15.809 14.6681 15.8214 15.5774 16.1236 16.4091L17.3523 19.7914C17.6855 20.7086 17.0063 21.6781 16.0304 21.6781C15.4418 21.6781 14.9155 21.3116 14.7113 20.7596L13.442 17.3282Z" fill="#282828"/>
<path d="M19.0117 20.3329C19.0117 19.7564 19.293 19.3272 19.8558 19.0453C20.101 18.93 20.3608 18.8724 20.6349 18.8724C21.2842 18.8724 21.7603 19.1222 22.0633 19.6219C22.1932 19.8396 22.2581 20.0767 22.2581 20.3329C22.2581 20.9222 21.9695 21.345 21.3924 21.6013C21.1471 21.7166 20.8946 21.7742 20.6349 21.7742C19.9712 21.7742 19.495 21.518 19.2065 21.0055C19.0766 20.7877 19.0117 20.5635 19.0117 20.3329Z" fill="#282828"/>
</svg>
